<svg width="167" height="32" viewBox="0 0 167 32" fill="none" xmlns="http://www.w3.org/2000/svg">
<path d="M28 4V0H0V28H8V32H12V28H28V8H8V24H4V4H28ZM12 20H20V16H12V12H24V24H12V20Z" fill="#212529"/>
<path d="M46.7097 9.81416H49.6584V18.3934C49.6584 19.683 49.5972 21.1366 48.5327 22.2841C47.407 23.4928 45.6868 23.6349 44.6835 23.6349C43.4748 23.6349 42.0212 23.4513 40.8759 22.4677C40.3032 21.9759 39.7086 21.1978 39.5032 20.0524H42.7163C42.8387 20.5224 43.125 20.789 43.372 20.953C43.7196 21.1781 44.2114 21.259 44.642 21.259C45.4813 21.259 45.9119 20.953 46.1152 20.7672C46.6879 20.2142 46.7097 19.2524 46.7097 18.8633V17.8185C46.3622 18.3912 45.6649 19.1912 43.9862 19.1912C42.5742 19.1912 41.4879 18.7409 40.6485 17.9016C39.9119 17.1431 39.3174 16.0393 39.3174 14.4612C39.3174 12.883 39.8901 11.6153 40.6682 10.8174C41.2212 10.2448 42.2857 9.50815 43.984 9.50815C45.6824 9.50815 46.3797 10.389 46.7075 10.8808V9.81634L46.7097 9.81416ZM43.0442 12.6601C42.5939 13.0907 42.3491 13.8054 42.3491 14.3584C42.3491 14.953 42.5742 15.5672 42.983 15.9956C43.3917 16.4262 43.9447 16.6513 44.642 16.6513C45.4201 16.6513 45.9316 16.3453 46.2398 16.0568C46.6901 15.6262 46.9567 14.9923 46.9567 14.3169C46.9567 13.6 46.6485 13.0076 46.2616 12.6382C45.831 12.2491 45.1972 12.0655 44.6638 12.0655C44.0081 12.0655 43.4157 12.3103 43.0463 12.6601H43.0442Z" fill="#343A40"/>
<path d="M53.6304 4.20325C54.5921 4.20325 55.3506 4.96172 55.3506 5.92347C55.3506 6.88521 54.5921 7.64368 53.6304 7.64368C52.6686 7.64368 51.9102 6.88521 51.9102 5.92347C51.9102 4.96172 52.6686 4.20325 53.6304 4.20325ZM55.1036 9.81199V18.942H52.155V9.81199H55.1036Z" fill="#343A40"/>
<path d="M60.7953 12.1879V18.9442H57.8467V12.1879H56.7822V9.81417H57.8467V8.01307C57.8467 6.99012 57.9494 5.82291 58.8697 4.8393C59.4642 4.20542 60.3035 3.79449 61.4292 3.79449C62.085 3.79449 62.6161 3.9169 63.1079 4.10051V6.67974C62.78 6.47428 62.3494 6.3322 61.9822 6.3322C61.532 6.3322 61.2456 6.53766 61.1232 6.7016C60.7953 7.1322 60.7953 7.84914 60.7953 8.27755V9.81198H63.1298V12.1858H60.7953V12.1879Z" fill="#343A40"/>
<path d="M71.9926 23.6328H69.0439V9.81418H71.9926V10.8983C72.9543 9.65024 74.1412 9.50598 74.8385 9.50598C76.4756 9.50598 77.5008 10.2229 78.0735 10.7956C78.8931 11.6153 79.4461 12.8634 79.4461 14.3584C79.4461 15.9344 78.8931 17.1213 77.9926 18.0218C77.092 18.9224 76.1084 19.2502 74.9019 19.2502C73.0789 19.2502 72.3008 18.33 71.9948 17.8994V23.6328H71.9926ZM72.4844 12.7213C72.0144 13.1912 71.7893 13.847 71.7893 14.4C71.7893 14.953 72.0144 15.5672 72.445 16.0175C72.8756 16.4481 73.4898 16.7125 74.1237 16.7125C74.6767 16.7125 75.2691 16.4874 75.6997 16.0787C76.1696 15.6284 76.4166 14.9333 76.4166 14.3388C76.4166 13.6634 76.1303 13.0688 75.7215 12.6798C75.2909 12.271 74.7183 12.0459 74.1237 12.0459C73.3041 12.0459 72.7729 12.4349 72.4866 12.7213H72.4844Z" fill="#343A40"/>
<path d="M81.2864 9.81416H84.235V11.248C84.5017 10.7366 84.9104 10.2644 85.3804 9.97809C85.8722 9.67208 86.3836 9.58902 86.9563 9.58902C87.3257 9.58902 87.5902 9.63055 87.9181 9.73328L87.7541 12.4961C87.3651 12.2907 86.9345 12.1683 86.423 12.1683C85.7891 12.1683 85.317 12.3934 84.9498 12.7825C84.294 13.4775 84.2328 14.4612 84.2328 15.2393V18.9442H81.2842V9.81416H81.2864Z" fill="#343A40"/>
<path d="M97.7478 17.777C96.9281 18.5967 95.5357 19.2502 93.7565 19.2502C91.9773 19.2502 90.5827 18.5945 89.7653 17.777C88.8429 16.8546 88.3926 15.5453 88.3926 14.3781C88.3926 13.2109 88.8429 11.9016 89.7653 10.9792C90.5849 10.1595 91.9773 9.50598 93.7565 9.50598C95.5357 9.50598 96.9303 10.1617 97.7478 10.9792C98.6702 11.8994 99.1205 13.2109 99.1205 14.3781C99.1205 15.5453 98.6702 16.8546 97.7478 17.777ZM92.0975 12.6579C91.6669 13.0885 91.4221 13.6415 91.4221 14.3781C91.4221 15.2175 91.75 15.7508 92.0975 16.0983C92.4669 16.4677 92.998 16.7541 93.7762 16.7541C94.4319 16.7541 94.9849 16.5289 95.4133 16.0983C95.8439 15.6677 96.0888 15.1147 96.0888 14.3781C96.0888 13.6415 95.8439 13.0885 95.4133 12.6579C94.9827 12.2273 94.4297 12.0022 93.7543 12.0022C93.0789 12.0022 92.5259 12.2273 92.0953 12.6579H92.0975Z" fill="#343A40"/>
<path d="M110.911 18.9442H107.962V17.8382C107.512 18.4939 106.692 19.2502 105.075 19.2502C103.724 19.2502 102.74 18.8196 101.943 18.0021C101.001 17.0601 100.509 15.7508 100.509 14.3366C100.509 12.8218 101.062 11.5737 101.943 10.7344C102.74 9.97591 103.866 9.50596 105.116 9.50596C106.12 9.50596 107.226 9.83383 107.962 10.8371V4.01962H110.911V18.9442ZM104.257 12.6601C103.827 13.0688 103.54 13.6633 103.54 14.4C103.54 15.0754 103.827 15.6699 104.257 16.0786C104.708 16.5092 105.28 16.7125 105.792 16.7125C106.345 16.7125 107.001 16.4874 107.471 16.0371C107.818 15.7092 108.146 15.1562 108.146 14.4C108.146 13.6437 107.84 13.0907 107.49 12.7213C107.02 12.2295 106.467 12.0459 105.831 12.0459C105.237 12.0459 104.725 12.2098 104.255 12.6601H104.257Z" fill="#343A40"/>
<path d="M116.236 9.81417V14.8502C116.236 15.259 116.277 15.895 116.747 16.3235C116.953 16.5071 117.32 16.7541 117.976 16.7541C118.529 16.7541 118.959 16.5705 119.224 16.3235C119.654 15.9147 119.716 15.3005 119.716 14.8502V9.81417H122.664V15.1366C122.664 16.1814 122.561 17.1628 121.641 18.0633C120.596 19.0863 119.062 19.2502 117.976 19.2502C116.889 19.2502 115.335 19.0863 114.29 18.0633C113.451 17.2437 113.287 16.3235 113.287 15.3202V9.81198H116.236V9.81417Z" fill="#343A40"/>
<path d="M127.986 4.01962V13.1715L131.302 9.81416H135.171L130.83 13.9497L135.477 18.9442H131.505L127.984 15.0142V18.9442H125.035V4.01962H127.984H127.986Z" fill="#343A40"/>
<path d="M143.177 12.6994C142.46 12.1049 141.724 12.0043 141.254 12.0043C140.334 12.0043 139.781 12.4546 139.575 12.6601C139.186 13.0491 138.9 13.6437 138.9 14.3803C138.9 15.0557 139.144 15.6284 139.514 16.0174C139.964 16.5092 140.64 16.7541 141.295 16.7541C141.807 16.7541 142.504 16.6098 143.179 16.0371V18.6994C142.401 19.13 141.665 19.2524 140.845 19.2524C139.311 19.2524 138.143 18.6994 137.304 17.8797C136.609 17.2043 135.87 16.0568 135.87 14.4C135.87 12.8437 136.526 11.6153 137.385 10.7978C138.408 9.83602 139.617 9.50815 140.865 9.50815C141.662 9.50815 142.399 9.65241 143.177 10.0196V12.7016V12.6994Z" fill="#343A40"/>
<path d="M146.821 4.20325C147.783 4.20325 148.541 4.96172 148.541 5.92347C148.541 6.88521 147.783 7.64368 146.821 7.64368C145.859 7.64368 145.101 6.88521 145.101 5.92347C145.101 4.96172 145.859 4.20325 146.821 4.20325ZM148.294 9.81199V18.942H145.345V9.81199H148.294Z" fill="#343A40"/>
<path d="M152.471 4.20325C153.433 4.20325 154.191 4.96172 154.191 5.92347C154.191 6.88521 153.433 7.64368 152.471 7.64368C151.509 7.64368 150.751 6.88521 150.751 5.92347C150.751 4.96172 151.509 4.20325 152.471 4.20325ZM153.944 9.81199V23.6306H150.996V9.81199H153.944Z" fill="#343A40"/>
<path d="M163.445 9.81418H166.393V18.9442H163.445V17.8382C162.647 19.0666 161.499 19.2502 160.743 19.2502C159.434 19.2502 158.328 18.9224 157.324 17.8579C156.363 16.8349 155.993 15.6459 155.993 14.4393C155.993 12.9049 156.566 11.5934 157.405 10.7541C158.203 9.95625 159.309 9.50598 160.579 9.50598C161.357 9.50598 162.605 9.68959 163.445 10.8371V9.81418ZM159.698 12.7016C159.392 13.0076 159.023 13.541 159.023 14.3606C159.023 15.1803 159.37 15.7114 159.637 15.9978C160.046 16.4284 160.682 16.7147 161.377 16.7147C161.971 16.7147 162.524 16.4699 162.911 16.0808C163.3 15.7114 163.628 15.1388 163.628 14.3606C163.628 13.7049 163.383 13.0907 162.953 12.6819C162.502 12.2513 161.847 12.0481 161.316 12.0481C160.682 12.0481 160.087 12.3147 159.698 12.7038V12.7016Z" fill="#343A40"/>
</svg>
